<svg xmlns="http://www.w3.org/2000/svg" viewBox="0 0 899.04 156.95" width="899" height="157" role="img" aria-label="Early Letters">
<title>Early Letters</title>
<path fill="#D9A47E" d="M93.74 112.14L20.27 112.14L20.27 104.3L27.83 103.16Q30.54 102.73 31.4 101.3Q32.26 99.87 32.26 95.88L32.26 95.88L32.26 27.83Q32.26 24.13 31.33 22.84Q30.4 21.56 27.55 21.13L27.55 21.13L20.27 19.99L20.27 12.14L89.18 12.14L94.31 36.39L85.32 38.68Q83.33 33.26 81.47 29.83Q79.62 26.41 77.34 24.48Q75.05 22.56 71.63 21.77Q68.21 20.99 63.36 20.99L63.36 20.99L49.52 20.99L49.52 56.51L60.5 56.51Q65.21 56.51 67.35 55.79Q69.49 55.08 70.56 52.73Q71.63 50.37 72.91 45.1L72.91 45.1L80.33 44.24L80.33 76.91L72.77 78.05Q72.06 72.77 70.99 70.27Q69.92 67.78 67.56 66.99Q65.21 66.21 60.5 66.21L60.5 66.21L49.52 66.21L49.52 103.16L67.21 103.16Q72.2 103.16 75.48 102.37Q78.76 101.59 81.04 99.59Q83.33 97.59 84.9 93.88Q86.47 90.17 87.89 84.61L87.89 84.61L97.16 84.61L93.74 112.14ZM128.83 114.14L128.83 114.14Q119.42 114.14 113.78 108.86Q108.15 103.58 108.15 94.88L108.15 94.88Q108.15 86.75 112.21 81.9Q116.28 77.05 125.34 74.62Q134.4 72.2 149.23 71.63L149.23 71.63L149.23 61.79Q149.23 56.08 147.81 52.51Q146.38 48.95 143.24 47.16Q140.1 45.38 134.97 45.38L134.97 45.38Q131.26 45.38 127.62 46.52Q123.98 47.66 122.27 49.38L122.27 49.38Q123.55 51.51 124.41 53.16Q125.27 54.8 125.62 55.87Q125.98 56.94 125.98 57.79L125.98 57.79Q125.98 60.5 123.63 62.5Q121.27 64.5 117.42 64.5L117.42 64.5Q113.14 64.5 110.93 62.43Q108.72 60.36 108.72 56.65L108.72 56.65Q108.72 51.51 112.57 47.16Q116.42 42.81 122.98 40.17Q129.55 37.53 137.53 37.53L137.53 37.53Q146.95 37.53 153.16 40.39Q159.36 43.24 162.43 49.02Q165.5 54.8 165.5 63.78L165.5 63.78L165.5 96.74Q165.5 100.02 167.06 101.59Q168.63 103.16 171.63 103.16L171.63 103.16Q173.2 103.16 174.7 102.87Q176.19 102.58 178.05 102.01L178.05 102.01L179.62 108.15Q176.91 110.72 172.91 112.43Q168.92 114.14 165.07 114.14L165.07 114.14Q158.79 114.14 155.22 110.93Q151.66 107.72 150.8 101.73L150.8 101.73Q148.38 105.72 145.17 108.43Q141.96 111.14 137.89 112.64Q133.83 114.14 128.83 114.14ZM135.25 103.58L135.25 103.58Q139.25 103.58 142.39 101.8Q145.52 100.02 147.38 96.88Q149.23 93.74 149.23 89.75L149.23 89.75L149.23 79.48Q140.96 79.48 135.47 80.97Q129.97 82.47 127.34 85.4Q124.7 88.32 124.7 93.03L124.7 93.03Q124.7 97.88 127.55 100.73Q130.4 103.58 135.25 103.58ZM227.98 112.14L186.18 112.14L186.18 104.44L192.74 103.16Q195.02 102.73 195.67 101.37Q196.31 100.02 196.31 96.31L196.31 96.31L196.31 58.08Q196.31 53.08 195.52 51.37Q194.74 49.66 191.6 49.23L191.6 49.23L184.9 48.23L185.89 40.25L207.58 38.53L209.43 39.67L211 52.51L211.43 52.51Q215.28 45.38 220.84 41.46Q226.41 37.53 232.97 37.53L232.97 37.53Q240.1 37.53 244.24 41.46Q248.38 45.38 248.38 51.8L248.38 51.8Q248.38 55.79 247.16 58.5Q245.95 61.22 243.67 62.64Q241.39 64.07 237.96 64.07L237.96 64.07Q233.54 64.07 231.19 62.29Q228.83 60.5 228.83 57.36L228.83 57.36Q228.83 56.22 229.12 55.08Q229.4 53.94 230.05 52.44Q230.69 50.94 231.54 49.09L231.54 49.09Q228.41 47.66 225.12 48.66Q221.84 49.66 218.99 52.58Q216.14 55.51 214.43 59.65Q212.71 63.78 212.71 68.63L212.71 68.63L212.71 96.59Q212.71 100.02 213.36 101.3Q214 102.58 216.28 102.87L216.28 102.87L227.98 104.58L227.98 112.14ZM293.6 112.14L253.65 112.14L253.65 104.3L261.07 103.01Q263.93 102.73 264.71 101.3Q265.5 99.87 265.5 95.88L265.5 95.88L265.5 21.56Q265.5 16.56 264.43 15.07Q263.36 13.57 259.5 13L259.5 13L253.65 12L254.51 3.73L280.05 2.87L281.76 4.44L281.76 96.31Q281.76 99.3 282.47 100.94Q283.18 102.58 286.18 103.16L286.18 103.16L293.6 104.44L293.6 112.14ZM311.43 144.95L311.43 144.95Q304.3 144.95 299.95 141.67Q295.59 138.39 295.59 132.83L295.59 132.83Q295.59 128.55 298.31 125.62Q301.02 122.7 305.3 122.7L305.3 122.7Q308.86 122.7 310.93 124.2Q313 125.69 313.28 128.26L313.28 128.26Q313.43 129.26 313.14 131.33Q312.86 133.4 312.29 136.68L312.29 136.68Q315.57 136.82 317.99 135.4Q320.42 133.97 322.77 130.12Q325.12 126.27 327.98 119.42L327.98 119.42L331.26 112L307.15 55.94Q305.58 51.94 304.51 50.66Q303.44 49.38 300.87 48.8L300.87 48.8L296.02 47.66L297.45 39.53L333.54 39.53L333.54 47.24L327.12 48.09Q324.55 48.38 323.7 49.87Q322.84 51.37 324.41 55.37L324.41 55.37L339.53 93.17L340.25 93.17L355.08 56.37Q356.51 53.08 355.87 51.16Q355.22 49.23 351.94 48.52L351.94 48.52L345.95 47.24L347.52 39.53L377.48 39.53L377.48 47.38L372.34 48.38Q370.06 48.95 368.85 50.3Q367.63 51.66 365.64 56.22L365.64 56.22L339.1 118.7Q336.11 125.98 333.18 130.97Q330.26 135.97 327.05 139.03Q323.84 142.1 320.06 143.53Q316.28 144.95 311.43 144.95ZM481.76 112.14L410 112.14L410 104.3L417.56 103.16Q420.27 102.73 421.13 101.3Q421.99 99.87 421.99 95.88L421.99 95.88L421.99 27.83Q421.99 24.27 421.06 22.91Q420.13 21.56 417.28 21.13L417.28 21.13L410 19.99L410 12.14L452.8 12.14L452.8 19.99L443.81 21.27Q441.1 21.7 440.17 22.91Q439.25 24.13 439.25 27.83L439.25 27.83L439.25 103.01L454.08 103.01Q458.79 103.01 462.07 102.01Q465.35 101.02 467.71 98.52Q470.06 96.02 471.99 91.67Q473.91 87.32 476.05 80.47L476.05 80.47L485.47 80.47L481.76 112.14ZM528.83 114.14L528.83 114.14Q517.85 114.14 510 109.57Q502.16 105.01 497.95 96.59Q493.74 88.18 493.74 77.05L493.74 77.05Q493.74 64.92 498.31 56.08Q502.87 47.24 511 42.39Q519.13 37.53 529.97 37.53L529.97 37.53Q538.25 37.53 544.52 40.74Q550.8 43.95 554.23 49.8Q557.65 55.65 557.65 63.5L557.65 63.5Q557.65 66.64 557.22 70.2Q556.79 73.77 555.79 77.34L555.79 77.34L511.14 77.34Q511.43 85.04 514.14 90.53Q516.85 96.02 521.63 98.88Q526.41 101.73 532.83 101.73L532.83 101.73Q538.68 101.73 543.81 99.52Q548.95 97.31 553.23 93.46L553.23 93.46L558.65 99.3Q553.51 106.15 545.67 110.15Q537.82 114.14 528.83 114.14ZM511 68.49L511 68.49L541.1 68.49Q541.39 67.06 541.46 65.35Q541.53 63.64 541.53 61.93L541.53 61.93Q541.53 54.08 538.25 50.09Q534.97 46.09 528.41 46.09L528.41 46.09Q523.27 46.09 519.63 48.73Q515.99 51.37 513.85 56.37Q511.71 61.36 511 68.49ZM598.16 114.14L598.16 114.14Q591.46 114.14 586.96 111.79Q582.47 109.43 580.26 104.65Q578.05 99.87 578.05 92.6L578.05 92.6L578.05 49.52L567.06 49.52L567.06 41.24Q572.49 40.67 575.91 37.96Q579.33 35.25 581.19 29.83Q583.04 24.41 583.75 15.85L583.75 15.85L592.31 14.85L594.31 15.71L594.31 39.53L637.96 39.53L637.96 49.52L594.31 49.52L594.31 90.74Q594.31 96.45 596.59 99.3Q598.88 102.16 603.87 102.16L603.87 102.16Q607.44 102.16 610.64 101.09Q613.85 100.02 616.99 97.88L616.99 97.88L620.7 104.01Q616.14 108.72 610.43 111.43Q604.72 114.14 598.16 114.14ZM655.22 114.14L655.22 114.14Q648.52 114.14 644.03 111.79Q639.53 109.43 637.32 104.65Q635.11 99.87 635.11 92.6L635.11 92.6L635.11 49.52L635.11 39.53Q636.54 32.26 640.82 15.85L649.38 14.85L651.37 15.71L651.37 39.53L673.06 39.53L673.06 49.52L651.37 49.52L651.37 90.74Q651.37 96.45 653.65 99.3Q655.94 102.16 660.93 102.16L660.93 102.16Q664.5 102.16 667.71 101.09Q670.92 100.02 674.05 97.88L674.05 97.88L677.76 104.01Q673.2 108.72 667.49 111.43Q661.79 114.14 655.22 114.14ZM718.85 114.14L718.85 114.14Q707.86 114.14 700.02 109.57Q692.17 105.01 687.96 96.59Q683.75 88.18 683.75 77.05L683.75 77.05Q683.75 64.92 688.32 56.08Q692.88 47.24 701.02 42.39Q709.15 37.53 719.99 37.53L719.99 37.53Q728.26 37.53 734.54 40.74Q740.82 43.95 744.24 49.8Q747.66 55.65 747.66 63.5L747.66 63.5Q747.66 66.64 747.24 70.2Q746.81 73.77 745.81 77.34L745.81 77.34L701.16 77.34Q701.44 85.04 704.15 90.53Q706.86 96.02 711.64 98.88Q716.42 101.73 722.84 101.73L722.84 101.73Q728.69 101.73 733.83 99.52Q738.96 97.31 743.24 93.46L743.24 93.46L748.66 99.3Q743.53 106.15 735.68 110.15Q727.83 114.14 718.85 114.14ZM701.02 68.49L701.02 68.49L731.12 68.49Q731.4 67.06 731.47 65.35Q731.54 63.64 731.54 61.93L731.54 61.93Q731.54 54.08 728.26 50.09Q724.98 46.09 718.42 46.09L718.42 46.09Q713.28 46.09 709.65 48.73Q706.01 51.37 703.87 56.37Q701.73 61.36 701.02 68.49ZM801.44 112.14L759.65 112.14L759.65 104.44L766.21 103.16Q768.49 102.73 769.13 101.37Q769.77 100.02 769.77 96.31L769.77 96.31L769.77 58.08Q769.77 53.08 768.99 51.37Q768.21 49.66 765.07 49.23L765.07 49.23L758.36 48.23L759.36 40.25L781.04 38.53L782.9 39.67L784.47 52.51L784.9 52.51Q788.75 45.38 794.31 41.46Q799.87 37.53 806.44 37.53L806.44 37.53Q813.57 37.53 817.71 41.46Q821.84 45.38 821.84 51.8L821.84 51.8Q821.84 55.79 820.63 58.5Q819.42 61.22 817.14 62.64Q814.85 64.07 811.43 64.07L811.43 64.07Q807.01 64.07 804.65 62.29Q802.3 60.5 802.3 57.36L802.3 57.36Q802.3 56.22 802.58 55.08Q802.87 53.94 803.51 52.44Q804.15 50.94 805.01 49.09L805.01 49.09Q801.87 47.66 798.59 48.66Q795.31 49.66 792.46 52.58Q789.6 55.51 787.89 59.65Q786.18 63.78 786.18 68.63L786.18 68.63L786.18 96.59Q786.18 100.02 786.82 101.3Q787.46 102.58 789.75 102.87L789.75 102.87L801.44 104.58L801.44 112.14ZM836.82 114.14L829.83 114.14L827.69 89.32L836.68 88.75Q838.68 94.03 841.53 97.66Q844.38 101.3 848.23 103.08Q852.09 104.87 856.65 104.87L856.65 104.87Q862.64 104.87 865.99 101.87Q869.35 98.88 869.35 93.74L869.35 93.74Q869.35 90.74 867.85 88.75Q866.35 86.75 862.71 85.11Q859.08 83.47 852.8 81.9L852.8 81.9Q847.09 80.33 842.6 78.41Q838.11 76.48 835.11 73.91Q832.11 71.34 830.62 67.85Q829.12 64.35 829.12 59.65L829.12 59.65Q829.12 52.8 832.26 47.88Q835.4 42.96 841.17 40.25Q846.95 37.53 854.65 37.53L854.65 37.53Q859.5 37.53 863.93 38.96Q868.35 40.39 871.06 42.39L871.06 42.39L872.2 37.53L879.33 37.53L881.19 61.07L872.06 60.36Q870.35 53.65 865.78 49.8Q861.22 45.95 855.22 45.95L855.22 45.95Q849.38 45.95 846.24 48.45Q843.1 50.94 843.1 55.51L843.1 55.51Q843.1 58.5 844.52 60.5Q845.95 62.5 849.59 64.07Q853.23 65.64 859.22 67.35L859.22 67.35Q865.5 69.06 870.06 71.06Q874.62 73.06 877.55 75.62Q880.47 78.19 881.9 81.69Q883.33 85.18 883.33 89.89L883.33 89.89Q883.33 97.16 879.97 102.66Q876.62 108.15 870.63 111.14Q864.64 114.14 856.79 114.14L856.79 114.14Q850.94 114.14 846.24 112.78Q841.53 111.43 838.39 109.15L838.39 109.15L836.82 114.14Z"/>
</svg>
