<svg xmlns="http://www.w3.org/2000/svg" viewBox="46 -778 5714 1020" role="img" aria-label="Early Letters"><title>Early Letters</title><path fill="#F2ECE4" d="M537 0L58 0L58 -12L116 -16Q135 -18 141 -28.5Q147 -39 147 -67L147 -668Q147 -693 140.5 -703.5Q134 -714 113 -715L58 -718L58 -730L510 -730L538 -566L525 -563Q509 -607 494 -636.5Q479 -666 459.5 -683Q440 -700 413 -707Q386 -714 346 -714L250 -714L250 -382L344 -382Q376 -382 393.5 -388.5Q411 -395 421 -415.5Q431 -436 441 -476L455 -478L455 -273L441 -271Q433 -310 423 -330.5Q413 -351 395 -358.5Q377 -366 344 -366L250 -366L250 -16L375 -16Q412 -16 437 -23Q462 -30 479.5 -47.5Q497 -65 511 -96Q525 -127 540 -174L553 -174L537 0ZM775.9 14Q709.9 14 673.4 -21.5Q636.9 -57 636.9 -121Q636.9 -171 662.9 -203.5Q688.9 -236 750.4 -254Q811.9 -272 917.9 -276L917.9 -399Q917.9 -439 907.9 -464Q897.9 -489 875.9 -500.5Q853.9 -512 818.9 -512Q784.9 -512 752.9 -501.5Q720.9 -491 703.9 -474Q721.9 -454 731.9 -438Q741.9 -422 746.4 -411Q750.9 -400 750.9 -391Q750.9 -374 736.4 -360.5Q721.9 -347 695.9 -347Q667.9 -347 653.4 -361Q638.9 -375 638.9 -400Q638.9 -432 664.9 -461.5Q690.9 -491 734.4 -509Q777.9 -527 827.9 -527Q891.9 -527 933.4 -507.5Q974.9 -488 995.4 -448Q1015.9 -408 1015.9 -346L1015.9 -78Q1015.9 -50 1027.9 -38.5Q1039.9 -27 1058.9 -27Q1070.9 -27 1083.9 -30.5Q1096.9 -34 1109.9 -41L1114.9 -33Q1090.9 -6 1066.4 4Q1041.9 14 1017.9 14Q972.9 14 950.4 -10.5Q927.9 -35 923.9 -84Q906.9 -47 885.4 -25.5Q863.9 -4 837.4 5Q810.9 14 775.9 14ZM819.9 -26Q849.9 -26 871.9 -40.5Q893.9 -55 905.9 -80Q917.9 -105 917.9 -137L917.9 -262Q852.9 -261 812.9 -249Q772.9 -237 755.4 -209Q737.9 -181 737.9 -132Q737.9 -81 758.9 -53.5Q779.9 -26 819.9 -26ZM1423.2 0L1142.2 0L1142.2 -12L1190.2 -18Q1206.2 -20 1211.2 -30Q1216.2 -40 1216.2 -66L1216.2 -433Q1216.2 -468 1210.2 -481Q1204.2 -494 1182.2 -495L1132.2 -499L1133.2 -509L1306.2 -518L1311.2 -513L1311.2 -414L1312.2 -414Q1334.2 -468 1372.7 -497.5Q1411.2 -527 1455.2 -527Q1502.2 -527 1530.2 -503Q1558.2 -479 1558.2 -443Q1558.2 -423 1551.2 -407Q1544.2 -391 1529.2 -381.5Q1514.2 -372 1492.2 -372Q1461.2 -372 1447.2 -386Q1433.2 -400 1433.2 -416Q1433.2 -426 1437.7 -437Q1442.2 -448 1450.2 -461Q1458.2 -474 1471.2 -491Q1444.2 -499 1416.2 -491.5Q1388.2 -484 1365.2 -464Q1342.2 -444 1327.7 -414Q1313.2 -384 1313.2 -346L1313.2 -64Q1313.2 -41 1317.7 -32Q1322.2 -23 1338.2 -21L1423.2 -11L1423.2 0ZM1860.7 0L1607.7 0L1607.7 -12L1650.7 -17Q1670.7 -19 1676.2 -29.5Q1681.7 -40 1681.7 -68L1681.7 -688Q1681.7 -722 1675.2 -734Q1668.7 -746 1647.7 -747L1597.7 -751L1598.7 -761L1771.7 -766L1778.7 -761L1778.7 -64Q1778.7 -40 1784.2 -29.5Q1789.7 -19 1810.7 -17L1860.7 -11L1860.7 0ZM1977.9 230Q1933.9 230 1909.4 208.5Q1884.9 187 1884.9 153Q1884.9 128 1898.9 110.5Q1912.9 93 1940.9 93Q1966.9 93 1981.4 106Q1995.9 119 1995.9 140Q1995.9 150 1993.4 165Q1990.9 180 1982.9 207Q2004.9 208 2028.4 199.5Q2051.9 191 2077.9 160Q2103.9 129 2129.9 62L2144.9 25L1950.9 -441Q1938.9 -472 1930.9 -481.5Q1922.9 -491 1910.9 -494L1878.9 -503L1880.9 -513L2119.9 -513L2119.9 -502L2072.9 -497Q2052.9 -495 2047.9 -484Q2042.9 -473 2052.9 -447L2190.9 -102L2193.9 -102L2322.9 -444Q2333.9 -472 2326.9 -482.5Q2319.9 -493 2297.9 -497L2262.9 -503L2262.9 -513L2422.9 -513L2422.9 -502L2389.9 -496Q2373.9 -492 2364.9 -483.5Q2355.9 -475 2344.9 -444L2163.9 37Q2141.9 97 2119.9 135Q2097.9 173 2075.9 194Q2053.9 215 2029.9 222.5Q2005.9 230 1977.9 230ZM3062 0L2589 0L2589 -12L2647 -16Q2666 -18 2672 -28.5Q2678 -39 2678 -67L2678 -668Q2678 -693 2671.5 -703.5Q2665 -714 2644 -715L2589 -718L2589 -730L2878 -730L2878 -718L2813 -715Q2796 -714 2788.5 -705.5Q2781 -697 2781 -668L2781 -16L2902 -16Q2938 -16 2964 -23Q2990 -30 3009 -49.5Q3028 -69 3043.5 -104Q3059 -139 3074 -196L3087 -196L3062 0ZM3360.1 14Q3292.1 14 3241.6 -15.5Q3191.1 -45 3162.6 -102.5Q3134.1 -160 3134.1 -245Q3134.1 -337 3164.6 -399.5Q3195.1 -462 3249.6 -494.5Q3304.1 -527 3376.1 -527Q3432.1 -527 3472.6 -505Q3513.1 -483 3535.6 -442.5Q3558.1 -402 3558.1 -348Q3558.1 -332 3557.6 -318.5Q3557.1 -305 3555.1 -291L3237.1 -291Q3235.1 -207 3254.1 -155.5Q3273.1 -104 3310.1 -80Q3347.1 -56 3394.1 -56Q3437.1 -56 3474.6 -69Q3512.1 -82 3552.1 -122L3561.1 -115Q3522.1 -45 3472.6 -15.5Q3423.1 14 3360.1 14ZM3238.1 -307L3457.1 -307Q3458.1 -316 3458.6 -328Q3459.1 -340 3459.1 -353Q3459.1 -443 3437.1 -477.5Q3415.1 -512 3367.1 -512Q3329.1 -512 3302.1 -492.5Q3275.1 -473 3259.1 -428Q3243.1 -383 3238.1 -307ZM3813.6 14Q3775.6 14 3748.1 -0.5Q3720.6 -15 3706.6 -47.5Q3692.6 -80 3692.6 -133L3692.6 -497L3621.6 -497L3621.6 -508Q3658.6 -511 3681.1 -526Q3703.6 -541 3716.6 -573.5Q3729.6 -606 3734.6 -662L3784.6 -669L3789.6 -665L3789.6 -513L4006.6 -513Q4034.2 -513 4051.1 -526Q4073.6 -541 4086.6 -573.5Q4099.6 -606 4104.6 -662L4154.6 -669L4159.6 -665L4159.6 -513L4306.6 -513L4306.6 -497L4159.6 -497L4159.6 -141Q4159.6 -93 4174.1 -69.5Q4188.6 -46 4226.6 -46Q4251.6 -46 4277.1 -56.5Q4302.6 -67 4321.6 -89L4331.6 -82Q4302.6 -36 4268.6 -11Q4234.6 14 4183.6 14Q4145.6 14 4118.1 -0.5Q4090.6 -15 4076.6 -47.5Q4062.6 -80 4062.6 -133L4062.6 -497L3789.6 -497L3789.6 -141Q3789.6 -93 3804.1 -69.5Q3818.6 -46 3856.6 -46Q3881.6 -46 3907.1 -56.5Q3932.6 -67 3951.6 -89L3961.6 -82Q3932.6 -36 3898.6 -11Q3864.6 14 3813.6 14ZM4626.1 14Q4558.1 14 4507.6 -15.5Q4457.1 -45 4428.6 -102.5Q4400.1 -160 4400.1 -245Q4400.1 -337 4430.6 -399.5Q4461.1 -462 4515.6 -494.5Q4570.1 -527 4642.1 -527Q4698.1 -527 4738.6 -505Q4779.1 -483 4801.6 -442.5Q4824.1 -402 4824.1 -348Q4824.1 -332 4823.6 -318.5Q4823.1 -305 4821.1 -291L4503.1 -291Q4501.1 -207 4520.1 -155.5Q4539.1 -104 4576.1 -80Q4613.1 -56 4660.1 -56Q4703.1 -56 4740.6 -69Q4778.1 -82 4818.1 -122L4827.1 -115Q4788.1 -45 4738.6 -15.5Q4689.1 14 4626.1 14ZM4504.1 -307L4723.1 -307Q4724.1 -316 4724.6 -328Q4725.1 -340 4725.1 -353Q4725.1 -443 4703.1 -477.5Q4681.1 -512 4633.1 -512Q4595.1 -512 4568.1 -492.5Q4541.1 -473 4525.1 -428Q4509.1 -383 4504.1 -307ZM5171.7 0L4890.7 0L4890.7 -12L4938.7 -18Q4954.7 -20 4959.7 -30Q4964.7 -40 4964.7 -66L4964.7 -433Q4964.7 -468 4958.7 -481Q4952.7 -494 4930.7 -495L4880.7 -499L4881.7 -509L5054.7 -518L5059.7 -513L5059.7 -414L5060.7 -414Q5082.7 -468 5121.2 -497.5Q5159.7 -527 5203.7 -527Q5250.7 -527 5278.7 -503Q5306.7 -479 5306.7 -443Q5306.7 -423 5299.7 -407Q5292.7 -391 5277.7 -381.5Q5262.7 -372 5240.7 -372Q5209.7 -372 5195.7 -386Q5181.7 -400 5181.7 -416Q5181.7 -426 5186.2 -437Q5190.7 -448 5198.7 -461Q5206.7 -474 5219.7 -491Q5192.7 -499 5164.7 -491.5Q5136.7 -484 5113.7 -464Q5090.7 -444 5076.2 -414Q5061.7 -384 5061.7 -346L5061.7 -64Q5061.7 -41 5066.2 -32Q5070.7 -23 5086.7 -21L5171.7 -11L5171.7 0ZM5413.7 14L5401.7 14L5388.7 -167L5402.7 -168Q5417.7 -107 5441.7 -71.5Q5465.7 -36 5496.7 -21Q5527.7 -6 5564.7 -6Q5618.7 -6 5648.7 -35Q5678.7 -64 5678.7 -113Q5678.7 -148 5662.2 -167.5Q5645.7 -187 5616.2 -198.5Q5586.7 -210 5547.7 -220Q5522.7 -228 5495.7 -237.5Q5468.7 -247 5445.7 -263.5Q5422.7 -280 5409.2 -307.5Q5395.7 -335 5395.7 -375Q5395.7 -418 5415.2 -452.5Q5434.7 -487 5472.2 -507Q5509.7 -527 5562.7 -527Q5608.7 -527 5638.2 -514Q5667.7 -501 5686.7 -486L5701.7 -527L5711.7 -527L5722.7 -368L5707.7 -369Q5688.7 -435 5655.2 -471.5Q5621.7 -508 5563.7 -508Q5516.7 -508 5489.2 -485Q5461.7 -462 5461.7 -418Q5461.7 -383 5479.2 -363Q5496.7 -343 5525.2 -332.5Q5553.7 -322 5586.7 -312Q5615.7 -304 5644.2 -292Q5672.7 -280 5696.7 -262.5Q5720.7 -245 5734.2 -217.5Q5747.7 -190 5747.7 -150Q5747.7 -100 5725.2 -63Q5702.7 -26 5661.2 -6Q5619.7 14 5563.7 14Q5525.7 14 5491.2 3.5Q5456.7 -7 5425.7 -32L5413.7 14Z"/></svg>
