<svg xmlns="http://www.w3.org/2000/svg" viewBox="9 8 82 82" role="img" aria-label="Early Letters"><title>Early Letters</title><path fill="#2B2722" d="M91 49C91 71.64 72.64 90 50 90C27.36 90 9 71.64 9 49C9 26.36 27.36 8 50 8C72.64 8 91 26.36 91 49ZM50 84.64C54.5 84.94 59.61 84.2 63.89 82.54C68.18 80.88 72.51 78.01 75.7 74.7C78.88 71.38 81.56 66.96 83.02 62.68C84.49 58.4 84.97 53.36 84.48 49C84 44.64 82.29 40.09 80.1 36.53C77.91 32.98 74.59 29.84 71.34 27.66C68.08 25.48 64.13 24.15 60.58 23.46C57.02 22.77 53.31 22.99 50 23.52C46.69 24.05 43.58 25.24 40.74 26.64C37.9 28.05 35.29 29.83 32.94 31.94C30.59 34.05 28.36 36.48 26.64 39.32C24.92 42.17 23.34 45.48 22.63 49C21.92 52.52 21.63 56.63 22.38 60.44C23.14 64.25 24.73 68.48 27.14 71.86C29.55 75.24 33.06 78.56 36.87 80.69C40.68 82.82 45.5 84.33 50 84.64ZM72 62.45C72 74.6 62.15 84.45 50 84.45C37.85 84.45 28 74.6 28 62.45C28 50.3 37.85 40.45 50 40.45C62.15 40.45 72 50.3 72 62.45ZM60.79 65.89C60.79 58.6 54.88 52.69 47.59 52.69C40.3 52.69 34.39 58.6 34.39 65.89C34.39 73.18 40.3 79.09 47.59 79.09C54.88 79.09 60.79 73.18 60.79 65.89ZM61 64.87C61 70.94 56.08 75.87 50 75.87C43.92 75.87 39 70.94 39 64.87C39 58.79 43.92 53.87 50 53.87C56.08 53.87 61 58.79 61 64.87Z"/></svg>
