<svg xmlns="http://www.w3.org/2000/svg" viewBox="13.7 -75.3 980.6 980.6" role="img" aria-label="Early Letters"><title>Early Letters</title><style>.m{fill:#2B2722}@media (prefers-color-scheme:dark){.m{fill:#F2ECE4}}</style><path class="m" d="M200.1 348.4C213.2 346.6 234.8 334.4 251.7 328.3C268.7 322.2 285.3 316.6 301.8 311.7C318.3 306.9 334.6 302.8 350.8 299.2C367 295.7 383.1 292.8 399.1 290.5C415.1 288.1 431 286.4 446.9 285.3C462.9 284.3 478.8 283.9 494.7 284.1C510.7 284.3 526.7 285.2 542.8 286.8C559 288.4 575.2 290.6 591.5 293.6C607.9 296.5 624.3 300.3 641 304.6C657.7 308.8 678.9 318.8 691.7 319.3C704.5 319.8 715 314.1 717.7 307.7C720.5 301.2 718.4 289.3 708.3 280.7C698.2 272.2 674.3 263.5 657 256.4C639.7 249.4 622.1 243.5 604.5 238.4C586.8 233.4 569 229.3 551.2 226.2C533.3 223.1 515.3 221 497.3 219.9C479.2 218.8 461.1 218.7 443.1 219.7C425 220.6 406.9 222.5 388.9 225.5C370.9 228.6 353 232.7 335.2 237.8C317.4 242.9 299.7 249.1 282.2 256.3C264.7 263.4 247.3 271.5 230.3 280.7C213.2 289.9 189.4 301.8 179.9 311.6C170.4 321.4 169.7 333.2 173.1 339.3C176.4 345.4 187 350.2 200.1 348.4Z"/><path class="m" d="M383.2 181a21 21 0 0 1 42 0L425.2 245.5a21 21 0 0 1 -42 0Z"/><path class="m" d="M169 330a21 21 0 0 1 42 0L211 389a21 21 0 0 1 -42 0Z"/><path class="m" d="M50 530a140 140 0 1 0 280 0a140 140 0 1 0 -280 0Z"/><path class="m" d="M681.1 300a18.9 18.9 0 0 1 37.8 0L718.9 345.1a18.9 18.9 0 0 1 -37.8 0Z"/><path class="m" d="M567.4 407.5C576.8 407.8 589.6 401.5 600.4 398.9C611.3 396.2 621.9 393.8 632.5 391.7C643.1 389.6 653.6 387.8 664 386.3C674.4 384.7 684.7 383.5 695 382.5C705.3 381.6 715.6 380.8 725.8 380.4C736.1 380 746.4 379.9 756.7 380.1C767 380.3 777.3 380.8 787.7 381.7C798.1 382.5 808.5 383.7 819.1 385.2C829.6 386.7 840.2 388.6 850.9 390.7C861.6 392.8 874.3 398.6 883.5 397.9C892.8 397.1 904.3 391.9 906.4 386C908.6 380 903.7 368.5 896.5 362.1C889.3 355.8 874.4 352 863.1 347.9C851.8 343.7 840.4 340.2 828.9 337.2C817.5 334.2 805.9 331.7 794.3 329.7C782.7 327.8 771 326.3 759.3 325.5C747.6 324.6 735.9 324.3 724.2 324.6C712.4 324.9 700.7 325.6 689 327.1C677.3 328.5 665.6 330.5 654 333.1C642.4 335.8 630.9 339 619.5 342.7C608.1 346.5 596.7 350.8 585.6 355.7C574.4 360.7 559.5 365.7 552.6 372.5C545.6 379.4 541.4 391 543.9 396.8C546.4 402.7 558 407.2 567.4 407.5Z"/><path class="m" d="M542.2 397.9a17.8 17.8 0 0 1 35.7 0L577.9 402.2a17.8 17.8 0 0 1 -35.7 0Z"/><path class="m" d="M466 494a94 94 0 1 0 188 0a94 94 0 1 0 -188 0Z"/><path class="m" d="M873.2 386.8a16.8 16.8 0 0 1 33.6 0L906.8 383.2a16.8 16.8 0 0 1 -33.6 0Z"/><path class="m" d="M822 448a68 68 0 1 0 136 0a68 68 0 1 0 -136 0Z"/></svg>
